<svg width="500" xmlns="http://www.w3.org/2000/svg" height="500" id="screenshot-395f77cd-2afe-8096-8006-21ee68556b87" viewBox="0 0 500 500" xmlns:xlink="http://www.w3.org/1999/xlink" fill="none" version="1.1"><g id="shape-395f77cd-2afe-8096-8006-21ee68556b87"><defs><clipPath id="frame-clip-395f77cd-2afe-8096-8006-21ee68556b87-render-1" class="frame-clip frame-clip-def"><rect rx="0" ry="0" x="0" y="0" width="500" height="500" transform="matrix(1.000000, 0.000000, 0.000000, 1.000000, 0.000000, 0.000000)"/></clipPath></defs><g><g><g clip-path="url(#frame-clip-395f77cd-2afe-8096-8006-21ee68556b87-render-1)" fill="none"><g class="fills" id="fills-395f77cd-2afe-8096-8006-21ee68556b87"><rect rx="0" ry="0" x="0" y="0" width="500" height="500" transform="matrix(1.000000, 0.000000, 0.000000, 1.000000, 0.000000, 0.000000)" class="frame-background"/></g><g class="frame-children"><g id="shape-395f77cd-2afe-8096-8006-21f02ba52956"><g class="fills" id="fills-395f77cd-2afe-8096-8006-21f02ba52956"><rect rx="0" ry="0" x="100" y="175" transform="matrix(1.000000, 0.000000, 0.000000, 1.000000, 0.000000, 0.000000)" width="300" height="150" style="fill: rgb(75, 64, 59); fill-opacity: 1;"/></g></g><g id="shape-395f77cd-2afe-8096-8006-21efe21bf074"><g><g><g fill="none"><g class="fills" id="fills-395f77cd-2afe-8096-8006-21efe21bf074"><rect rx="0" ry="0" x="196" y="200" width="108" height="100" transform="matrix(1.000000, 0.000000, 0.000000, 1.000000, 0.000000, 0.000000)" class="frame-background"/></g><g class="frame-children"><g id="shape-395f77cd-2afe-8096-8006-21efe21bf075" width="160" height="160" rx="0" ry="0" style="fill: rgb(0, 0, 0);"><g id="shape-395f77cd-2afe-8096-8006-21efe21bf076" style="display: none;"><g class="fills" id="fills-395f77cd-2afe-8096-8006-21efe21bf076"><rect width="57.75401069518716" height="57.31448860762714" x="221.12299465240642" transform="matrix(1.000000, 0.000000, 0.000000, 1.000000, 0.000000, 0.000000)" style="fill: rgb(245, 100, 31); fill-opacity: 1;" ry="0" fill="none" rx="0" y="221.20636078482198"/></g></g><g id="shape-395f77cd-2afe-8096-8006-21efe21c149d"><g class="fills" id="fills-395f77cd-2afe-8096-8006-21efe21c149d"><path d="M250.000,221.206L275.008,235.535L275.008,264.192L250.000,278.521L224.992,264.192L224.992,235.535Z" style="fill: rgb(245, 100, 31); fill-opacity: 1;"/></g></g></g><g id="shape-395f77cd-2afe-8096-8006-21efe21c149e"><g class="fills" id="fills-395f77cd-2afe-8096-8006-21efe21c149e"><rect rx="0" ry="0" x="282.34224598930473" y="242.69929401268223" transform="matrix(1.000000, 0.000000, 0.000000, 1.000000, 0.000000, 0.000000)" width="21.657754010695214" height="14.3286221519067" style="fill: rgb(245, 100, 31); fill-opacity: 1;"/></g></g><g id="shape-395f77cd-2afe-8096-8006-21efe21c149f"><g class="fills" id="fills-395f77cd-2afe-8096-8006-21efe21c149f"><rect rx="0" ry="0" x="260.71754702922846" y="279.9055758294684" transform="matrix(0.502867, 0.864364, -0.867671, 0.497138, 384.082006, -90.284178)" width="21.534256691371695" height="14.411111087940242" style="fill: rgb(245, 100, 31); fill-opacity: 1;"/></g></g><g id="shape-395f77cd-2afe-8096-8006-21efe21c14a0"><g class="fills" id="fills-395f77cd-2afe-8096-8006-21efe21c14a0"><rect rx="0" ry="0" x="217.83519408805205" y="279.9055758294684" transform="matrix(-0.502867, 0.864364, -0.867671, -0.497138, 592.677133, 232.249477)" width="21.534256691371695" height="14.411111087940299" style="fill: rgb(245, 100, 31); fill-opacity: 1;"/></g></g><g id="shape-395f77cd-2afe-8096-8006-21efe21c14a1"><g class="fills" id="fills-395f77cd-2afe-8096-8006-21efe21c14a1"><rect rx="0" ry="0" x="196" y="242.69929401268223" transform="matrix(-1.000000, 0.000000, 0.000000, -1.000000, 413.657754, 499.727210)" width="21.657754010695157" height="14.3286221519067" style="fill: rgb(245, 100, 31); fill-opacity: 1;"/></g></g><g id="shape-395f77cd-2afe-8096-8006-21efe21c14a2"><g class="fills" id="fills-395f77cd-2afe-8096-8006-21efe21c14a2"><rect rx="0" ry="0" x="217.1132689543623" y="205.6833130825913" transform="matrix(-0.502867, -0.864364, 0.867671, -0.497138, 157.756434, 515.695522)" width="21.534256691371667" height="14.411111087940299" style="fill: rgb(245, 100, 31); fill-opacity: 1;"/></g></g><g id="shape-395f77cd-2afe-8096-8006-21efe21c14a3"><g class="fills" id="fills-395f77cd-2afe-8096-8006-21efe21c14a3"><rect rx="0" ry="0" x="261.0063170827044" y="205.68331308259133" transform="matrix(0.502867, -0.864364, 0.867671, 0.497138, -49.610177, 341.964776)" width="21.534256691371695" height="14.411111087940327" style="fill: rgb(245, 100, 31); fill-opacity: 1;"/></g></g></g></g></g></g></g><g id="shape-395f77cd-2afe-8096-8006-21f179dc8a5f"><g><g><g fill="none"><g class="fills" id="fills-395f77cd-2afe-8096-8006-21f179dc8a5f"><rect rx="0" ry="0" x="137.5" y="150" width="225" height="25" transform="matrix(1.000000, 0.000000, 0.000000, 1.000000, 0.000000, 0.000000)" class="frame-background"/></g><g class="frame-children"><g id="shape-395f77cd-2afe-8096-8006-21f065164c01"><g class="fills" id="fills-395f77cd-2afe-8096-8006-21f065164c01"><rect rx="0" ry="0" x="137.5" y="150" transform="matrix(1.000000, 0.000000, 0.000000, 1.000000, 0.000000, 0.000000)" width="25" height="25" style="fill: rgb(107, 179, 171); fill-opacity: 1;"/></g></g><g id="shape-395f77cd-2afe-8096-8006-21f0be07749f"><g class="fills" id="fills-395f77cd-2afe-8096-8006-21f0be07749f"><rect rx="0" ry="0" x="187.5" y="150" transform="matrix(1.000000, 0.000000, 0.000000, 1.000000, 0.000000, 0.000000)" width="25" height="25" style="fill: rgb(107, 179, 171); fill-opacity: 1;"/></g></g><g id="shape-395f77cd-2afe-8096-8006-21f15171c4d3"><g class="fills" id="fills-395f77cd-2afe-8096-8006-21f15171c4d3"><rect rx="0" ry="0" x="237.5" y="150" transform="matrix(1.000000, 0.000000, 0.000000, 1.000000, 0.000000, 0.000000)" width="25" height="25" style="fill: rgb(107, 179, 171); fill-opacity: 1;"/></g></g><g id="shape-395f77cd-2afe-8096-8006-21f1638acbfe"><g class="fills" id="fills-395f77cd-2afe-8096-8006-21f1638acbfe"><rect rx="0" ry="0" x="287.5" y="150" transform="matrix(1.000000, 0.000000, 0.000000, 1.000000, 0.000000, 0.000000)" width="25" height="25" style="fill: rgb(107, 179, 171); fill-opacity: 1;"/></g></g><g id="shape-395f77cd-2afe-8096-8006-21f169f9bd43"><g class="fills" id="fills-395f77cd-2afe-8096-8006-21f169f9bd43"><rect rx="0" ry="0" x="337.5" y="150" transform="matrix(1.000000, 0.000000, 0.000000, 1.000000, 0.000000, 0.000000)" width="25" height="25" style="fill: rgb(107, 179, 171); fill-opacity: 1;"/></g></g></g></g></g></g></g><g id="shape-395f77cd-2afe-8096-8006-21f18184b1f2"><g><g><g fill="none"><g class="fills" id="fills-395f77cd-2afe-8096-8006-21f18184b1f2"><rect rx="0" ry="0" x="138" y="325" width="225" height="25" transform="matrix(1.000000, 0.000000, 0.000000, 1.000000, 0.000000, 0.000000)" class="frame-background"/></g><g class="frame-children"><g id="shape-395f77cd-2afe-8096-8006-21f18184b1f3"><g class="fills" id="fills-395f77cd-2afe-8096-8006-21f18184b1f3"><rect rx="0" ry="0" x="138" y="325" transform="matrix(1.000000, 0.000000, 0.000000, 1.000000, 0.000000, 0.000000)" width="25" height="25" style="fill: rgb(107, 179, 171); fill-opacity: 1;"/></g></g><g id="shape-395f77cd-2afe-8096-8006-21f18184b1f4"><g class="fills" id="fills-395f77cd-2afe-8096-8006-21f18184b1f4"><rect rx="0" ry="0" x="188" y="325" transform="matrix(1.000000, 0.000000, 0.000000, 1.000000, 0.000000, 0.000000)" width="25" height="25" style="fill: rgb(107, 179, 171); fill-opacity: 1;"/></g></g><g id="shape-395f77cd-2afe-8096-8006-21f18184b1f5"><g class="fills" id="fills-395f77cd-2afe-8096-8006-21f18184b1f5"><rect rx="0" ry="0" x="238" y="325" transform="matrix(1.000000, 0.000000, 0.000000, 1.000000, 0.000000, 0.000000)" width="25" height="25" style="fill: rgb(107, 179, 171); fill-opacity: 1;"/></g></g><g id="shape-395f77cd-2afe-8096-8006-21f18184b1f6"><g class="fills" id="fills-395f77cd-2afe-8096-8006-21f18184b1f6"><rect rx="0" ry="0" x="288" y="325" transform="matrix(1.000000, 0.000000, 0.000000, 1.000000, 0.000000, 0.000000)" width="25" height="25" style="fill: rgb(107, 179, 171); fill-opacity: 1;"/></g></g><g id="shape-395f77cd-2afe-8096-8006-21f18184b1f7"><g class="fills" id="fills-395f77cd-2afe-8096-8006-21f18184b1f7"><rect rx="0" ry="0" x="338" y="325" transform="matrix(1.000000, 0.000000, 0.000000, 1.000000, 0.000000, 0.000000)" width="25" height="25" style="fill: rgb(107, 179, 171); fill-opacity: 1;"/></g></g></g></g></g></g></g></g></g></g></g></g></svg>